Coordinates
version=1
nRows=42
nColumns=38
inDegrees=no

Units are S.I. units (second, meters, Newtons, ...)
If the header above contains a line with 'inDegrees', this indicates whether rotational values are in degrees (yes) or radians (no).

endheader
time	pelvis_tilt	pelvis_list	pelvis_rotation	pelvis_tx	pelvis_ty	pelvis_tz	hip_flexion_r	hip_adduction_r	hip_rotation_r	knee_angle_r	ankle_angle_r	subtalar_angle_r	mtp_angle_r	hip_flexion_l	hip_adduction_l	hip_rotation_l	knee_angle_l	ankle_angle_l	subtalar_angle_l	mtp_angle_l	lumbar_extension	lumbar_bending	lumbar_rotation	arm_flex_r	arm_add_r	arm_rot_r	elbow_flex_r	pro_sup_r	wrist_flex_r	wrist_dev_r	arm_flex_l	arm_add_l	arm_rot_l	elbow_flex_l	pro_sup_l	wrist_flex_l	wrist_dev_l
1.67	0.0787074	1.28056	1.41545	0.606649	-0.30214	0.997538	0.699129	0.0305628	0.149655	1.21114	-0.160381	0	0	0.125844	-0.0147976	-0.252639	0.314955	-0.214582	0	0	0.158954	-0.0691655	0.251988	-0.248988	-0.655386	0.117647	2.0167	1.5708	0	0	0.339531	-0.312506	0.878296	1.74445	1.5708	0	0
1.68	0.0835534	1.28088	1.40734	0.606844	-0.301316	0.99777	0.70825	0.0358943	0.152873	1.20859	-0.163679	0	0	0.122414	-0.0159531	-0.253329	0.311638	-0.215321	0	0	0.160369	-0.0664178	0.252128	-0.231125	-0.657746	0.125555	2.00464	1.5708	0	0	0.351283	-0.309209	0.880896	1.73109	1.5708	0	0
1.69	0.0896111	1.28167	1.39827	0.607028	-0.300555	0.998009	0.716383	0.04133	0.155966	1.20431	-0.16671	0	0	0.118022	-0.0170686	-0.252583	0.306868	-0.216218	0	0	0.16022	-0.063727	0.250378	-0.210352	-0.660701	0.136274	1.99212	1.5708	0	0	0.361845	-0.306961	0.881419	1.71913	1.5708	0	0
1.7	0.0957265	1.28219	1.38901	0.607261	-0.299732	0.998217	0.724497	0.0466535	0.15864	1.19873	-0.168651	0	0	0.113932	-0.0183962	-0.252525	0.302289	-0.217138	0	0	0.160278	-0.0607308	0.249377	-0.190586	-0.663252	0.146321	1.98034	1.5708	0	0	0.372719	-0.30561	0.882544	1.70796	1.5708	0	0
1.71	0.290083	1.31475	1.17308	0.60227	-0.298422	0.992742	0.69509	0.0861494	0.138507	1.21613	-0.156359	0	0	0.07033	-0.0776247	-0.359445	0.3603	-0.162643	0	0	0.324253	0.107953	-0.183055	0.665777	-0.588836	1.17056	1.56766	1.5708	0	0	-0.0137065	-0.358148	0.408371	1.71241	1.5708	0	0
1.72	0.106441	1.28258	1.37257	0.607684	-0.298046	0.998509	0.740037	0.0567028	0.165193	1.18311	-0.169786	0	0	0.106962	-0.0210356	-0.254049	0.294665	-0.218538	0	0	0.16088	-0.0546421	0.245352	-0.147595	-0.66802	0.170027	1.95708	1.5708	0	0	0.394505	-0.303108	0.88302	1.68622	1.5708	0	0
1.73	0.111463	1.28258	1.36602	0.607649	-0.297232	0.998588	0.747637	0.060101	0.16724	1.17359	-0.170366	0	0	0.103942	-0.021941	-0.253777	0.290979	-0.219034	0	0	0.161127	-0.0518344	0.246072	-0.132065	-0.669188	0.175069	1.94734	1.5708	0	0	0.409342	-0.300391	0.88829	1.67288	1.5708	0	0
1.74	0.321664	1.31811	1.13508	0.602128	-0.295973	0.993386	0.712344	0.0989515	0.143466	1.18734	-0.157727	0	0	0.0537954	-0.0815216	-0.363474	0.346711	-0.16457	0	0	0.308854	0.12237	-0.168637	0.688732	-0.576811	1.16858	1.5368	1.5708	0	0	0.0426761	-0.367138	0.435602	1.67449	1.5708	0	0
1.75	0.323468	1.31569	1.13193	0.602032	-0.295081	0.993226	0.722138	0.101441	0.143989	1.17559	-0.15853	0	0	0.0535328	-0.0822934	-0.363592	0.343818	-0.164676	0	0	0.309413	0.126019	-0.165594	0.696579	-0.571816	1.17052	1.52492	1.5708	0	0	0.0600568	-0.370367	0.445329	1.66147	1.5708	0	0
1.76	0.12403	1.28352	1.34978	0.607378	-0.294799	0.998812	0.768066	0.0665722	0.169966	1.13754	-0.173365	0	0	0.0944364	-0.0235688	-0.253447	0.280191	-0.221516	0	0	0.161324	-0.0433055	0.235906	-0.063401	-0.674323	0.214409	1.90745	1.5708	0	0	0.446458	-0.297182	0.894073	1.63519	1.5708	0	0
1.77	0.126336	1.2835	1.34646	0.607295	-0.293966	0.998767	0.77463	0.0677351	0.170587	1.12317	-0.174477	0	0	0.0925017	-0.023919	-0.253902	0.278512	-0.221695	0	0	0.162061	-0.0416088	0.234112	-0.0437193	-0.674267	0.223546	1.89422	1.5708	0	0	0.461427	-0.296459	0.900086	1.62189	1.5708	0	0
1.78	0.128148	1.28343	1.34318	0.607308	-0.293007	0.998656	0.78072	0.0691365	0.171916	1.10753	-0.176226	0	0	0.0905221	-0.0243762	-0.255259	0.277276	-0.222134	0	0	0.16292	-0.0404322	0.23149	-0.0222436	-0.674274	0.235167	1.88031	1.5708	0	0	0.475273	-0.297269	0.904995	1.61011	1.5708	0	0
1.79	0.130631	1.28423	1.33993	0.607221	-0.292039	0.998608	0.78541	0.0698627	0.173072	1.09076	-0.178133	0	0	0.0877895	-0.0246627	-0.25584	0.276138	-0.222327	0	0	0.162387	-0.0393315	0.228284	-0.0001666	-0.674706	0.247284	1.86629	1.5708	0	0	0.49008	-0.296733	0.910276	1.59727	1.5708	0	0
1.8	0.384807	1.33196	1.06486	0.601077	-0.290976	0.994344	0.731079	0.109385	0.144423	1.09796	-0.164547	0	0	0.0189817	-0.0861044	-0.374056	0.331424	-0.166327	0	0	0.25751	0.133048	-0.133449	0.725173	-0.557934	1.14056	1.47799	1.5708	0	0	0.176764	-0.387653	0.514083	1.60108	1.5708	0	0
1.81	0.137431	1.28794	1.3327	0.606893	-0.290067	0.998598	0.791588	0.069896	0.174147	1.05509	-0.181873	0	0	0.0799172	-0.024804	-0.255292	0.273116	-0.222607	0	0	0.15852	-0.0368801	0.216494	0.0531892	-0.675777	0.281267	1.83467	1.5708	0	0	0.516742	-0.297062	0.915585	1.57312	1.5708	0	0
1.82	0.424098	1.3431	1.02408	0.60063	-0.289211	0.994993	0.726164	0.111277	0.144455	1.06103	-0.167602	0	0	-0.00106921	-0.0874929	-0.378964	0.326098	-0.166753	0	0	0.225774	0.1329	-0.113123	0.731136	-0.559608	1.11572	1.46651	1.5708	0	0	0.234861	-0.391372	0.552084	1.5759	1.5708	0	0
1.83	0.144936	1.291	1.32433	0.606702	-0.287894	0.998326	0.797527	0.0701609	0.17509	1.01741	-0.187226	0	0	0.0728234	-0.0257987	-0.256794	0.271284	-0.22138	0	0	0.157619	-0.0339007	0.209237	0.101554	-0.675714	0.311417	1.80143	1.5708	0	0	0.547496	-0.295814	0.928884	1.54426	1.5708	0	0
1.84	0.148544	1.29236	1.32011	0.606638	-0.286725	0.998097	0.800547	0.0702426	0.175293	0.998263	-0.190083	0	0	0.0696857	-0.0263905	-0.257826	0.271433	-0.220419	0	0	0.157812	-0.0328167	0.208807	0.120426	-0.675016	0.320653	1.78583	1.5708	0	0	0.566238	-0.293392	0.940807	1.5272	1.5708	0	0
1.85	0.152367	1.29431	1.31538	0.606596	-0.28548	0.997903	0.80259	0.0702539	0.17561	0.978722	-0.193029	0	0	0.0657539	-0.0268039	-0.258701	0.271534	-0.218864	0	0	0.157405	-0.0317412	0.206634	0.143048	-0.674674	0.334526	1.76882	1.5708	0	0	0.58251	-0.291474	0.949391	1.51091	1.5708	0	0
1.86	0.156503	1.29696	1.30995	0.606561	-0.284185	0.997748	0.803683	0.0700989	0.175537	0.958834	-0.195774	0	0	0.0608188	-0.0270864	-0.259808	0.271403	-0.217019	0	0	0.156142	-0.0308554	0.204654	0.166159	-0.674172	0.348925	1.75129	1.5708	0	0	0.599568	-0.289292	0.958642	1.49435	1.5708	0	0
1.87	0.64473	1.39064	0.798035	0.599402	-0.285061	0.998452	0.678816	0.115547	0.13912	0.959973	-0.178058	0	0	-0.0843724	-0.0912274	-0.397186	0.310777	-0.165558	0	0	0.0918284	0.114252	-0.0214418	0.708827	-0.5997	0.978521	1.47716	1.5708	0	0	0.431626	-0.376116	0.691048	1.50575	1.5708	0	0
1.88	0.625559	1.38654	0.815104	0.599606	-0.283147	0.997671	0.688013	0.115822	0.138711	0.940294	-0.179472	0	0	-0.0812645	-0.0910182	-0.39654	0.310192	-0.164717	0	0	0.095824	0.108733	-0.0123991	0.707588	-0.60027	0.969996	1.46863	1.5708	0	0	0.454177	-0.373357	0.71075	1.49126	1.5708	0	0
1.89	0.159402	1.29796	1.30078	0.606924	-0.279303	0.996479	0.813272	0.0711219	0.175069	0.899771	-0.200237	0	0	0.0515791	-0.0270823	-0.26091	0.268578	-0.213227	0	0	0.143638	-0.0419322	0.15945	0.284626	-0.658674	0.445358	1.69076	1.5708	0	0	0.607034	-0.312996	0.92121	1.49941	1.5708	0	0
1.9	0.155798	1.29552	1.30225	0.607196	-0.277421	0.99584	0.819219	0.0715452	0.174945	0.88056	-0.200551	0	0	0.0513362	-0.0265132	-0.259808	0.267517	-0.212145	0	0	0.152753	-0.0418601	0.164611	0.295059	-0.656073	0.449046	1.6728	1.5708	0	0	0.630384	-0.308573	0.944447	1.47574	1.5708	0	0
1.91	0.154609	1.29396	1.30154	0.607418	-0.27553	0.995368	0.823704	0.0720063	0.1751	0.86076	-0.2011	0	0	0.0496506	-0.0260817	-0.258481	0.265225	-0.211523	0	0	0.16084	-0.0389493	0.166964	0.311393	-0.653169	0.459227	1.65246	1.5708	0	0	0.651082	-0.305202	0.964222	1.45217	1.5708	0	0
1.92	0.155839	1.29273	1.29864	0.607556	-0.273636	0.995049	0.827408	0.072561	0.175557	0.840317	-0.202525	0	0	0.0471832	-0.0258874	-0.257229	0.261923	-0.211637	0	0	0.167711	-0.0331003	0.166544	0.332494	-0.649792	0.474635	1.63096	1.5708	0	0	0.668954	-0.302715	0.980122	1.42944	1.5708	0	0
1.93	0.15763	1.29105	1.29558	0.607673	-0.271756	0.994683	0.831587	0.0731385	0.176666	0.820101	-0.20405	0	0	0.0450472	-0.0259385	-0.256673	0.2583	-0.211252	0	0	0.170237	-0.0305068	0.164541	0.352708	-0.646085	0.486976	1.61348	1.5708	0	0	0.685132	-0.301214	0.990865	1.41353	1.5708	0	0
1.94	0.160828	1.28946	1.2915	0.607787	-0.269853	0.994332	0.835158	0.0743434	0.178127	0.800354	-0.204918	0	0	0.0424627	-0.0263257	-0.256844	0.254057	-0.211145	0	0	0.172325	-0.027449	0.161688	0.373564	-0.641913	0.500227	1.59544	1.5708	0	0	0.700366	-0.299907	1.00073	1.39773	1.5708	0	0
1.95	0.164939	1.28789	1.28709	0.607919	-0.267919	0.993991	0.838658	0.075588	0.179158	0.781621	-0.205634	0	0	0.039612	-0.0270132	-0.257441	0.249236	-0.211999	0	0	0.174	-0.0241485	0.157875	0.394983	-0.637241	0.514532	1.57698	1.5708	0	0	0.714647	-0.299084	1.00973	1.38236	1.5708	0	0
1.96	0.168121	1.28632	1.28444	0.608211	-0.265995	0.993636	0.842691	0.0761486	0.180007	0.763983	-0.206968	0	0	0.0369687	-0.0278112	-0.257848	0.24441	-0.212743	0	0	0.17537	-0.0213219	0.153312	0.416154	-0.631628	0.528702	1.55853	1.5708	0	0	0.728391	-0.298786	1.01776	1.36752	1.5708	0	0
1.97	0.172225	1.2846	1.28232	0.60828	-0.264019	0.993245	0.846469	0.0758519	0.180546	0.746532	-0.208558	0	0	0.0345318	-0.0287731	-0.257395	0.239421	-0.213418	0	0	0.175591	-0.0190263	0.149347	0.43405	-0.627352	0.538741	1.54267	1.5708	0	0	0.742981	-0.296733	1.02649	1.35257	1.5708	0	0
1.98	0.178276	1.28333	1.2797	0.608096	-0.261988	0.992842	0.849519	0.0745623	0.180387	0.729273	-0.210434	0	0	0.0315498	-0.0299489	-0.256053	0.234347	-0.213916	0	0	0.174663	-0.0161629	0.144176	0.452111	-0.623484	0.548645	1.52731	1.5708	0	0	0.757541	-0.294258	1.03496	1.33756	1.5708	0	0
1.99	0.185385	1.28203	1.27699	0.607892	-0.259914	0.992391	0.852654	0.0730461	0.180159	0.713289	-0.212162	0	0	0.0286507	-0.0315476	-0.254141	0.229634	-0.214333	0	0	0.173553	-0.0130449	0.13812	0.470466	-0.619329	0.558765	1.51195	1.5708	0	0	0.771507	-0.291758	1.0423	1.32269	1.5708	0	0
2	0.197258	1.30024	1.27719	0.606488	-0.25646	0.992366	0.868152	0.0342883	0.0804304	0.760192	-0.220129	0	0	0.0015551	-0.0270288	-0.254723	0.217451	-0.216103	0	0	0.151489	-0.0147452	0.124568	0.495222	-0.616028	0.572334	1.49709	1.5708	0	0	0.788084	-0.289852	1.04715	1.30921	1.5708	0	0
2.01	0.200571	1.28038	1.27379	0.607426	-0.255696	0.991451	0.858454	0.0679668	0.178453	0.684612	-0.213497	0	0	0.0222852	-0.0351206	-0.24822	0.220263	-0.214561	0	0	0.168941	-0.00822248	0.124925	0.50649	-0.611336	0.577107	1.48275	1.5708	0	0	0.799664	-0.285307	1.05476	1.29259	1.5708	0	0
2.02	0.625552	1.3684	0.837484	0.600276	-0.256237	0.992844	0.741349	0.10697	0.13569	0.690566	-0.193366	0	0	-0.118303	-0.0901104	-0.362399	0.239359	-0.171631	0	0	0.0222787	0.0587863	0.0850288	0.696371	-0.617435	0.755135	1.41015	1.5708	0	0	0.818124	-0.292047	0.994621	1.28378	1.5708	0	0
2.03	0.2127	1.27915	1.27572	0.60689	-0.251206	0.990134	0.865441	0.0602481	0.17497	0.661482	-0.212199	0	0	0.0153581	-0.0380628	-0.241194	0.209541	-0.213653	0	0	0.163881	-0.00478288	0.112251	0.540198	-0.605658	0.593073	1.45707	1.5708	0	0	0.827768	-0.276188	1.06669	1.26202	1.5708	0	0
2.04	0.216771	1.2937	1.28443	0.605637	-0.247605	0.989448	0.886745	0.0253287	0.0857617	0.717096	-0.21703	0	0	-0.00657648	-0.0334725	-0.241955	0.199427	-0.214323	0	0	0.146845	-0.00855422	0.103843	0.554962	-0.60519	0.595627	1.44783	1.5708	0	0	0.847514	-0.268333	1.07748	1.24417	1.5708	0	0
2.05	0.629691	1.36826	0.855584	0.599561	-0.249341	0.990819	0.753213	0.0922255	0.12775	0.661067	-0.195363	0	0	-0.129362	-0.0911593	-0.349331	0.220537	-0.172314	0	0	0.00516997	0.0503575	0.0951491	0.698123	-0.628737	0.712487	1.40497	1.5708	0	0	0.891202	-0.254006	1.04824	1.2244	1.5708	0	0
2.06	0.223351	1.27685	1.28725	0.606036	-0.243766	0.987644	0.878825	0.0450095	0.165904	0.635686	-0.21424	0	0	0.00442658	-0.0409459	-0.230006	0.192419	-0.214105	0	0	0.157349	-0.00343991	0.102149	0.575175	-0.604551	0.598552	1.42826	1.5708	0	0	0.878547	-0.250217	1.09756	1.20644	1.5708	0	0
2.07	0.21849	1.26591	1.30578	0.605666	-0.241877	0.985867	0.895066	0.0357622	0.161767	0.628961	-0.216609	0	0	0.016799	-0.0431757	-0.213283	0.195452	-0.211096	0	0	0.16695	-0.00530716	0.0934651	0.582375	-0.603614	0.596816	1.41929	1.5708	0	0	0.895205	-0.241819	1.11123	1.18811	1.5708	0	0
2.08	0.22274	1.29012	1.30892	0.604566	-0.23725	0.985845	0.904931	0.00576251	0.081612	0.688067	-0.215336	0	0	-0.0212246	-0.036137	-0.224866	0.175372	-0.215192	0	0	0.139154	-0.0101282	0.0896008	0.601503	-0.604974	0.60453	1.40908	1.5708	0	0	0.914566	-0.234052	1.12134	1.17098	1.5708	0	0
